<svg id="social-media" xmlns="http://www.w3.org/2000/svg" width="44" height="44" viewBox="0 0 44 44">
  <path id="Path_39" data-name="Path 39" d="M9.152,32.971a.645.645,0,0,0,1.289,0v-6.89h.039a5.41,5.41,0,0,0,1.135-.125.73.73,0,0,0-.027-1.432.94.94,0,0,1-.686-.433,3.043,3.043,0,0,1-.161-1.922h3.433a3.963,3.963,0,0,0,3.958-3.958V10.23a3.963,3.963,0,0,0-3.958-3.959H10.441V5.242h3.28a.645.645,0,0,0,0-1.289h-3.28v-.73a1.936,1.936,0,0,1,1.934-1.934h19.25a1.936,1.936,0,0,1,1.934,1.934v.73H16.471a.645.645,0,0,0,0,1.289H33.559V8.25a.645.645,0,1,0,1.289,0V3.223A3.226,3.226,0,0,0,31.625,0H12.375A3.226,3.226,0,0,0,9.152,3.223V6.272H3.958A3.963,3.963,0,0,0,0,10.23v7.981A3.963,3.963,0,0,0,3.958,22.17H6.6a4.53,4.53,0,0,0,1.59,3.2,3.37,3.37,0,0,0,.96.506ZM7.833,21.487a.644.644,0,0,0-.644-.606H3.958a2.672,2.672,0,0,1-2.669-2.669V10.23A2.672,2.672,0,0,1,3.958,7.561H14.174a2.672,2.672,0,0,1,2.669,2.669v7.981a2.672,2.672,0,0,1-2.669,2.669H10.227a.644.644,0,0,0-.618.462,4.874,4.874,0,0,0,.163,3.369,2.159,2.159,0,0,1-.8-.373,3.7,3.7,0,0,1-1.138-2.853Zm0,0" fill="#fff"/>
  <path id="Path_40" data-name="Path 40" d="M229.145,475.289h3.438a.645.645,0,1,0,0-1.289h-3.437a.645.645,0,1,0,0,1.289Zm0,0" transform="translate(-208.863 -433.266)" fill="#fff"/>
  <path id="Path_41" data-name="Path 41" d="M65.422,124.153a2.532,2.532,0,0,0-2.428-2.672,2.825,2.825,0,0,0-1.783.633,2.825,2.825,0,0,0-1.783-.633A2.532,2.532,0,0,0,57,124.153c0,.951.485,2.8,3.738,4.515a1.015,1.015,0,0,0,.947,0C64.936,126.955,65.422,125.1,65.422,124.153Zm-7.133,0a1.26,1.26,0,0,1,1.139-1.383,1.552,1.552,0,0,1,1.121.48.934.934,0,0,0,1.325,0,1.552,1.552,0,0,1,1.121-.48,1.26,1.26,0,0,1,1.139,1.383c0,1.1-1.063,2.3-2.922,3.307-1.859-1.007-2.922-2.208-2.922-3.307Zm0,0" transform="translate(-52.102 -111.041)" fill="#fff"/>
  <path id="Path_42" data-name="Path 42" d="M137.39,126.593H132.2v-5.785a.645.645,0,0,0-1.289,0v5.785h-3.733a3.963,3.963,0,0,0-3.959,3.959v7.981a3.963,3.963,0,0,0,3.959,3.959h3.432a3.073,3.073,0,0,1-.159,1.92.94.94,0,0,1-.688.434.73.73,0,0,0-.027,1.432,5.408,5.408,0,0,0,1.135.125h.039v2.192H107.79v-3.022a.645.645,0,1,0-1.289,0v5.042a3.226,3.226,0,0,0,3.223,3.223h19.25a3.226,3.226,0,0,0,3.223-3.223v-4.419a3.37,3.37,0,0,0,.96-.506,4.528,4.528,0,0,0,1.59-3.2h2.644a3.963,3.963,0,0,0,3.959-3.958v-7.981A3.963,3.963,0,0,0,137.39,126.593Zm-6.483,24.021a1.936,1.936,0,0,1-1.934,1.934h-19.25a1.936,1.936,0,0,1-1.934-1.934v-.73h23.117Zm9.152-12.081a2.672,2.672,0,0,1-2.669,2.669h-3.232a.644.644,0,0,0-.643.606,3.7,3.7,0,0,1-1.138,2.853,2.159,2.159,0,0,1-.8.373,4.874,4.874,0,0,0,.163-3.369.644.644,0,0,0-.618-.462h-3.948a2.672,2.672,0,0,1-2.669-2.669v-7.981a2.672,2.672,0,0,1,2.669-2.669H137.39a2.672,2.672,0,0,1,2.669,2.669Zm0,0" transform="translate(-97.348 -109.837)" fill="#fff"/>
  <path id="Path_43" data-name="Path 43" d="M369.558,232.54a2.449,2.449,0,1,0-3.811,0A3.268,3.268,0,0,0,364,235.429v.057a1.579,1.579,0,0,0,1.577,1.576h4.152a1.578,1.578,0,0,0,1.576-1.576v-.057A3.268,3.268,0,0,0,369.558,232.54Zm-1.906-2.7a1.16,1.16,0,1,1-1.16,1.16A1.161,1.161,0,0,1,367.653,229.844Zm2.363,5.642a.288.288,0,0,1-.288.287h-4.152a.288.288,0,0,1-.287-.287v-.057a1.978,1.978,0,0,1,1.976-1.976h.775a1.978,1.978,0,0,1,1.976,1.976Zm0,0" transform="translate(-332.719 -208.914)" fill="#fff"/>
  <path id="Path_44" data-name="Path 44" d="M244.363,92.648h-9.109a.645.645,0,0,0,0,1.289h9.109a.645.645,0,0,0,0-1.289Zm0,0" transform="translate(-214.447 -84.686)" fill="#fff"/>
  <path id="Path_45" data-name="Path 45" d="M244.363,122.648h-9.109a.645.645,0,1,0,0,1.289h9.109a.645.645,0,1,0,0-1.289Zm0,0" transform="translate(-214.447 -112.108)" fill="#fff"/>
  <path id="Path_46" data-name="Path 46" d="M245.008,153.293a.645.645,0,0,0-.645-.645h-9.109a.645.645,0,0,0,0,1.289h9.109A.645.645,0,0,0,245.008,153.293Zm0,0" transform="translate(-214.447 -139.53)" fill="#fff"/>
  <path id="Path_47" data-name="Path 47" d="M163.488,304.973a.645.645,0,0,0-.645-.645h-9.109a.644.644,0,0,0-.645.645v2.578a.644.644,0,0,0,.645.645h9.109a.645.645,0,0,0,.645-.645Zm-1.289,1.934h-7.82v-1.289h7.82Zm0,0" transform="translate(-139.934 -278.175)" fill="#fff"/>
  <path id="Path_48" data-name="Path 48" d="M162.844,364.328h-9.109a.645.645,0,0,0,0,1.289h9.109a.645.645,0,0,0,0-1.289Zm0,0" transform="translate(-139.934 -333.019)" fill="#fff"/>
</svg>
