<svg xmlns="http://www.w3.org/2000/svg" width="44" height="44" viewBox="0 0 44 44">
  <g id="paint-palette" transform="translate(-1.94)">
    <g id="Group_39" data-name="Group 39" transform="translate(30.168 19.422)">
      <g id="Group_38" data-name="Group 38">
        <ellipse id="Ellipse_2" data-name="Ellipse 2" cx="0.866" cy="0.859" rx="0.866" ry="0.859" fill="#fff"/>
      </g>
    </g>
    <g id="Group_41" data-name="Group 41" transform="translate(18.077 23.954)">
      <g id="Group_40" data-name="Group 40">
        <path id="Path_49" data-name="Path 49" d="M201.4,278.748a.865.865,0,0,0-.983.724c-.237,1.586-1.588,2.9-3.614,3.519-2.165.66-5.171.439-7-1.543a.871.871,0,0,0-1.223-.052.855.855,0,0,0-.052,1.214,7.647,7.647,0,0,0,4.169,2.261,9.3,9.3,0,0,0,1.813.175,9.692,9.692,0,0,0,2.807-.413c2.68-.817,4.481-2.652,4.818-4.91A.86.86,0,0,0,201.4,278.748Z" transform="translate(-188.293 -278.738)" fill="#fff"/>
      </g>
    </g>
    <g id="Group_43" data-name="Group 43" transform="translate(1.94)">
      <g id="Group_42" data-name="Group 42">
        <path id="Path_50" data-name="Path 50" d="M43.218,16.363a10.744,10.744,0,0,0-6.361-3.456,49.077,49.077,0,0,0,6.2-4.8c2.347-2.22,3.135-3.78,2.477-4.909-.731-1.258-2.843-1.249-6.645.028A66.733,66.733,0,0,0,27.624,8.5c-.7.4-1.394.812-2.073,1.226a4.589,4.589,0,0,1,.939-4.42,3.265,3.265,0,0,0,.485-3.47A3.5,3.5,0,0,0,23.694,0h-.041A21.582,21.582,0,0,0,9.1,5.825,21.6,21.6,0,0,0,2.028,19.843,21.966,21.966,0,0,0,7.794,36.863,22.284,22.284,0,0,0,24.107,44a23.781,23.781,0,0,0,9.273-1.794,20.875,20.875,0,0,0,6.829-4.619,20.4,20.4,0,0,0,4.224-6.272,18.071,18.071,0,0,0,1.5-6.791A11.927,11.927,0,0,0,43.218,16.363ZM25.652,11.686c.916-.574,1.871-1.145,2.837-1.7A66.988,66.988,0,0,1,39,5.006c3.335-1.172,4.7-1.1,5.018-.944-.028.2-.278,1.09-2.466,3.09a55.068,55.068,0,0,1-7.514,5.53c-.954.6-1.947,1.2-2.951,1.771-1.384.793-2.767,1.534-4.125,2.213a12.852,12.852,0,0,0-2.456-4.248Q25.07,12.051,25.652,11.686Zm-.259,5.742a44.609,44.609,0,0,1-6.481,2.537,4.281,4.281,0,0,0-1.307-2.286,44.476,44.476,0,0,1,5.452-4.3,11.184,11.184,0,0,1,2.335,4.044ZM44.206,24.5c-.123,8.551-7.843,17.781-20.1,17.781A20.541,20.541,0,0,1,9.07,35.7,20.218,20.218,0,0,1,23.653,1.719h.039a1.8,1.8,0,0,1,1.724.865,1.557,1.557,0,0,1-.285,1.657,6.27,6.27,0,0,0-1.07,6.415c-.464.3-.92.595-1.361.891l-.006,0a46.066,46.066,0,0,0-6.626,5.222,4.336,4.336,0,0,0-3.558.346c-1.8,1.031-4.161,5.837-4.617,6.79a.854.854,0,0,0,.032.8.867.867,0,0,0,.68.427c.479.038,1.838.136,3.35.136,1.836,0,3.9-.143,4.884-.709A4.289,4.289,0,0,0,18.9,21.75a46.019,46.019,0,0,0,7.9-3.088c1.684-.813,3.415-1.728,5.147-2.72.878-.5,1.747-1.022,2.591-1.546h.015C41.777,14.6,44.275,19.75,44.206,24.5ZM17.267,21a2.573,2.573,0,0,1-1.295,2.071c-.819.469-3.632.533-5.942.428,1.063-2.037,2.525-4.423,3.344-4.893a2.606,2.606,0,0,1,2.5-.052A2.578,2.578,0,0,1,17.267,21Z" transform="translate(-1.94)" fill="#fff"/>
      </g>
    </g>
    <g id="Group_45" data-name="Group 45" transform="translate(13.715 5.314)">
      <g id="Group_44" data-name="Group 44">
        <path id="Path_51" data-name="Path 51" d="M141.386,61.84a3.438,3.438,0,1,0,3.464,3.437A3.455,3.455,0,0,0,141.386,61.84Zm0,5.156a1.719,1.719,0,1,1,1.732-1.719A1.727,1.727,0,0,1,141.386,67Z" transform="translate(-137.922 -61.84)" fill="#fff"/>
      </g>
    </g>
    <g id="Group_47" data-name="Group 47" transform="translate(9.385 28.407)">
      <g id="Group_46" data-name="Group 46">
        <path id="Path_52" data-name="Path 52" d="M91.386,330.55a3.438,3.438,0,1,0,3.464,3.438A3.455,3.455,0,0,0,91.386,330.55Zm0,5.156a1.719,1.719,0,1,1,1.732-1.719A1.727,1.727,0,0,1,91.386,335.706Z" transform="translate(-87.922 -330.55)" fill="#fff"/>
      </g>
    </g>
    <g id="Group_49" data-name="Group 49" transform="translate(18.045 33.563)">
      <g id="Group_48" data-name="Group 48">
        <path id="Path_53" data-name="Path 53" d="M191.386,390.55a3.438,3.438,0,1,0,3.464,3.438A3.455,3.455,0,0,0,191.386,390.55Zm0,5.156a1.719,1.719,0,1,1,1.732-1.719A1.727,1.727,0,0,1,191.386,395.706Z" transform="translate(-187.922 -390.55)" fill="#fff"/>
      </g>
    </g>
    <g id="Group_51" data-name="Group 51" transform="translate(28.436 31.844)">
      <g id="Group_50" data-name="Group 50">
        <path id="Path_54" data-name="Path 54" d="M311.386,370.55a3.438,3.438,0,1,0,3.464,3.438A3.455,3.455,0,0,0,311.386,370.55Zm0,5.156a1.719,1.719,0,1,1,1.732-1.719A1.727,1.727,0,0,1,311.386,375.706Z" transform="translate(-307.922 -370.55)" fill="#fff"/>
      </g>
    </g>
    <g id="Group_53" data-name="Group 53" transform="translate(35.363 23.25)">
      <g id="Group_52" data-name="Group 52">
        <path id="Path_55" data-name="Path 55" d="M391.386,270.55a3.438,3.438,0,1,0,3.464,3.438A3.455,3.455,0,0,0,391.386,270.55Zm0,5.156a1.719,1.719,0,1,1,1.732-1.719A1.727,1.727,0,0,1,391.386,275.706Z" transform="translate(-387.922 -270.55)" fill="#fff"/>
      </g>
    </g>
  </g>
</svg>
